Patient4_TMGait_0pt3_03_left_27_EMG.mot
version=1
nRows=23
nColumns=33
inDegrees=no
endheader
time	1LAddLong	2LGlutMax	3LGlutMed	4LIliopsoas	5LSemiMemb	6LBicFemLong	7LRecFem	8LVastMed	9LVastLat	10LGasMed	11LTibAnt	12lTibPost	13LPeroneusLong	14LSol	15LExtDigLong	16LFlexDigLong	17RAddLong	18RGlutMax	19RGlutMed	20RIliopsoas	21RSemiMemb	22RBicFemLong	23RRecFem	24RVastMed	25RVastLat	26RGasMed	27RTibAnt	28RTibPost	29RPeroneusLong	30RSol	31RExtDigLong	32RFlexDigLong
48.195	0.012512	-0.078125	-0.15289	-0.02182	0.024109	0.1059	-0.052032	-0.010223	-0.025024	-0.022278	0.003204	-0.011597	-0.13718	0.061646	0.065155	0.009003	0.014038	-0.1326	-0.13672	-0.13733	0.005798	-0.03891	0.06073	-0.047302	0.038757	-0.02594	0.033569	0.14389	-0.24506	-0.67535	0.001373	-0.018616
48.196	0.018921	-0.075684	-0.32959	0	0.018311	0.2359	-0.012817	-0.014954	-0.018311	-0.000763	0.009918	-0.013428	-0.077362	0.042267	0.015717	0.003967	0.018921	-0.095215	-0.20248	-0.10986	0.010223	-0.032959	0.056458	-0.071106	0.034027	-0.018311	0.019531	0.013428	-0.10208	-0.39536	-0.001678	-0.019684
48.197	0.021515	-0.094757	-0.34058	0.012054	0	0.26077	0.02121	-0.001068	0.10376	0.003815	0.011749	-0.014343	-0.16281	0.035095	-0.012207	0.004425	0.013733	-0.095367	-0.077972	-0.078888	0.017548	-0.010986	0.085602	-0.067139	0.037689	-0.005951	0.008087	0.05661	-0.081787	-0.28809	0.001678	-0.011749
48.198	-0.083618	-0.12924	-0.1619	0.005035	-0.014038	0.020599	0.003357	0.007782	0.28519	0.03067	0.002594	-0.009308	-0.075378	-0.032959	-0.057831	0.014191	0.00473	-0.096283	-0.13657	-0.058289	0.017395	0.04776	0.096741	-0.025024	0.023804	0.00412	0.02655	0.037384	-0.21011	-0.32776	0.000305	-0.015259
48.199	0.032806	-0.088501	0.082092	0.003662	-0.077667	-0.076752	0.027618	0.013275	0.30106	0.030823	0.005646	0.002594	-0.031586	-0.025635	-0.001373	-0.016174	-0.032959	-0.05661	-0.13763	0.14771	0.026398	0.094299	0.066986	-0.036469	0.020142	0.00885	0.035095	-0.00412	-0.10422	0.25162	0.002747	-0.016785
48.2	-0.022125	-0.15671	0.19745	0.009918	-0.096436	-0.2742	0.000153	0.045013	0.31616	-0.002747	0.003204	-0.005493	0.55908	0.047455	0.066986	0.00885	-0.034943	-0.11581	-0.069122	0.36591	0.055847	0.066681	0.07309	-0.03067	0.037537	0.00885	0.042419	-0.004272	0.11826	0.47058	0	-0.013885
48.201	0.036469	-0.14603	0.058746	0.011597	-0.10101	-0.39963	-0.031281	0.038147	0.38879	0.003967	0.00946	0.003357	0.18601	0.059662	0.039978	-0.003052	-0.018921	-0.16693	-0.12848	0.33508	0.044403	0.012054	0.098267	-0.084381	0.020752	0.010986	0.044403	-0.055847	0.26489	-0.055237	0.000916	-0.026093
48.202	0.033417	-0.097351	-0.014648	0.01358	0.008392	-0.34683	-0.091095	0.032043	0.28671	-0.017242	-0.011139	0.001526	0.18417	0.087738	0.032349	0.009766	-0.004272	-0.19043	-0.13351	0.2298	0.039215	0.042572	0.10483	-0.051727	0.016174	0.008087	0.010223	0.011749	0.39124	-0.30701	-0.001221	-0.018005
48.203	-0.000305	-0.036469	0.020447	0.016327	0.077515	-0.37933	-0.10941	0.028839	-0.02594	-0.036316	-0.016022	0.001831	0.08606	0.094147	0.005035	-0.010376	0.013123	-0.1648	-0.13443	0.074158	0.032043	0.049591	0.074921	-0.075226	0.032196	0.019379	-0.003357	-0.01297	0.30212	0.065002	-0.004883	-0.012512
48.204	-0.026703	-0.014801	0.049286	0.01236	0.065613	-0.24185	-0.008392	0.022736	-0.47607	-0.011902	0.004272	0.005188	-0.25024	-0.045013	-0.091248	-0.012512	0.010529	-0.13321	-0.099792	0.028839	0.014038	0.034943	0.11261	-0.065155	0.033264	0.006104	0.008698	-0.016022	0.13245	0.457	-0.003662	-0.015411
48.205	-0.017242	0.012817	0.068665	0.00473	0.054321	0.067291	-0.024414	-0.009613	-0.57526	0.014801	0.014038	0.003815	-0.27512	-0.052643	-0.065002	-0.019836	0.025787	-0.1619	-0.082397	-0.021362	-0.007324	0.027313	0.076599	-0.061493	0.045776	0.006256	0.031738	-0.017242	0.039978	0.29724	-0.001984	-0.008087
48.206	-0.009308	0.019531	-0.075073	0.027466	-0.004272	0.21668	-0.012207	-0.046387	-0.3157	-0.013885	0.002747	0.002136	-0.064545	0.027313	-0.014343	0.001678	0.029907	-0.18448	-0.074615	-0.037079	0.000305	0.050049	0.075989	-0.069733	0.021362	0.015411	0.014038	-0.010529	0.014801	0.16968	-0.003204	-0.002747
48.207	0.001526	0.01297	-0.053253	0.021667	-0.023651	0.20523	0.037231	-0.041809	-0.057831	0.005188	0.004272	0.020142	-0.087128	-0.003967	-0.016022	-0.010529	0.043793	-0.16068	-0.13718	-0.07431	-0.000153	0.038605	0.076752	-0.095062	0.042114	0.02594	0.019836	0.010529	0.097046	0.085449	0.000763	-0.001526
48.208	0.010986	0.02182	-0.042267	0.005035	-0.004883	0.1474	0.17151	-0.018768	0.11017	-0.001526	0.007935	0.010986	0.059662	0.005798	-0.019989	-0.01297	0.029755	-0.1004	-0.13641	0.001526	0.011139	0.043945	0.089264	-0.074158	0.029449	0.0354	0.027161	0.042725	-0.13458	-0.097504	0.00061	-0.00824
48.209	0.002594	0.04364	-0.031738	0.010071	-0.11124	0.11475	0.14267	-0.009155	0.09613	-0.035706	-0.011597	0.012207	0.3006	0.045624	-0.018768	-0.008545	0.047302	-0.13092	-0.15839	-0.00885	0.006561	0.041809	0.10361	-0.043488	0.027161	0.053711	0.027313	-0.44693	-0.35019	-0.29068	0.005493	-0.006256
48.21	0.006714	0.04776	-0.061951	-0.006866	-0.058136	0.076141	0.12314	-0.006104	0.055389	0.000305	0.00061	0.014496	0.084991	0.04425	-0.018005	-0.02243	0.040436	-0.14923	-0.097504	-0.12955	0.012512	0.048218	0.095978	-0.054016	0.037689	0.027466	0.059509	-0.045929	-0.004883	-0.51041	-0.002594	-0.015411
48.211	0.003967	0.07019	-0.087128	0.004883	0.013123	0.082397	0.090485	-0.00351	0.034943	0.030212	-0.003052	0.016174	-0.12772	0.033722	-0.003662	-0.006714	0.05127	-0.15839	-0.088043	-0.16724	0.007935	0.034637	0.092773	-0.05188	0.033264	0.014343	0.074921	0.065613	-0.22003	-0.92621	0.000153	-0.02182
48.212	-0.002747	0.10437	-0.043182	-0.00351	-0.032959	0.06546	0.052185	-0.00473	0.022125	0.035095	0	0.018158	-0.1181	0.056305	0.031281	0.000458	0.031433	-0.073547	-0.069427	-0.099792	0.009766	0.035095	0.09903	-0.067749	0.014801	0.018311	0.019379	0.016174	-0.17883	-0.79926	0.00412	-0.02121
48.213	-0.005646	0.089417	-0.010986	0.031586	0.036316	0.012207	0.004425	0.007629	0.037079	0.017395	0.001831	0.019379	0.11002	0.016479	0.034637	-0.032501	0.015869	-0.073242	-0.078888	0.11459	0.006409	0.01358	0.098267	-0.068512	0.037689	-0.003052	-0.044403	0.017548	0.15732	-0.28153	0.001678	-0.019073
48.214	-0.016785	0.088196	0.057678	0.026398	-0.008392	0.004272	-0.011444	-0.005493	0.095062	0.012817	0.008087	0.016174	0.2832	-0.012512	0.02655	-0.00351	0.010681	0.000458	-0.11383	0.13214	-0.005646	0.028381	0.11169	-0.06485	0.01236	-0.009766	-0.051575	-0.22064	0.38742	0.019836	0.002136	-0.021057
48.215	-0.016174	0.084839	0.015869	0.016785	-0.027771	0.049286	-0.023499	0.00412	0.049438	0.034332	0.019379	0.020447	0.44708	0.019989	0.008545	-0.000916	-0.002136	-0.034943	-0.19791	0.062103	-0.005493	0.036163	0.10223	-0.058441	0.014343	-0.031128	-0.01709	-0.15671	0.21912	0.19699	0.001373	-0.026093
48.216	-0.011139	0.063782	0.023193	0.017853	0.018616	0.068359	-0.12756	0.02243	-0.11612	0.03479	0.018005	0.020142	0.5661	0.038757	0.037384	-0.02655	-0.002899	-0.063629	-0.16647	0.009003	-0.00885	0.028992	0.11887	-0.036469	0.023956	-0.037537	0.016632	0.30838	0.17044	0.19653	-0.007324	-0.030975
48.217	-0.018311	0.11978	0.011139	0.019989	-0.002594	0.12405	-0.099792	0.04715	-0.20142	0.01358	0.025024	0.022736	0.21698	0.13962	0.12238	0.005951	0.002747	-0.08316	-0.15991	-0.00351	-0.012512	0.036163	0.09964	-0.057831	0.00824	-0.066071	0.033875	-0.017548	0.3363	0.22919	0.000153	-0.027924
